<svg xmlns="http://www.w3.org/2000/svg" viewBox="0 0 24 24" fill="none" stroke="currentColor" stroke-linecap="round" stroke-linejoin="round"><g transform="translate(12 12) scale(1.2) translate(-12 -12.7)"><path stroke-width="1.15" d="M7.70 10.30L7.70 10.33L7.68 10.36L7.66 10.39L7.63 10.41L7.60 10.42L7.56 10.43L7.52 10.42L7.47 10.41L7.43 10.39L7.39 10.35L7.35 10.31L7.32 10.26L7.30 10.20L7.29 10.13L7.29 10.06L7.30 9.99L7.33 9.91L7.37 9.84L7.42 9.77L7.49 9.70L7.57 9.65L7.66 9.60L7.76 9.57L7.86 9.56L7.98 9.56L8.09 9.58L8.21 9.61L8.32 9.67L8.43 9.74L8.53 9.83L8.62 9.94L8.69 10.07L8.74 10.20L8.78 10.35L8.79 10.51L8.78 10.67L8.75 10.83L8.69 10.99L8.61 11.14L8.50 11.28L8.37 11.41L8.22 11.52L8.05 11.62L7.87 11.68L7.68 11.73L7.47 11.74L7.26 11.72L7.06 11.68L6.85 11.60L6.66 11.49L6.48 11.36L6.32 11.19L6.18 11.01L6.06 10.80L5.98 10.57L5.93 10.32L5.91 10.07L5.93 9.82L5.98 9.56L6.08 9.31L6.20 9.08L6.37 8.86L6.56 8.66L6.79 8.49L7.04 8.35L7.32 8.24L7.60 8.18L7.90 8.15L8.21 8.17L8.51 8.24L8.81 8.34L9.09 8.49L9.35 8.68L9.59 8.91L9.79 9.17L9.96 9.46L10.08 9.78L10.16 10.11L10.20 10.46L10.18 10.81L10.12 11.17L10.00 11.51L9.83 11.84L9.62 12.14L9.37 12.42L9.07 12.66L8.74 12.85L8.38 13.00L8.00 13.10L7.60 13.15L7.20 13.14L6.80 13.07L6.41 12.95L6.03 12.77L5.68 12.54L5.37 12.25L5.09 11.93L4.86 11.56L4.68 11.16L4.56 10.73L4.50 10.30"/><path stroke-width="1.15" d="M16.30 10.30L16.30 10.33L16.28 10.36L16.26 10.39L16.23 10.41L16.20 10.42L16.16 10.43L16.12 10.42L16.07 10.41L16.03 10.39L15.99 10.35L15.95 10.31L15.92 10.26L15.90 10.20L15.89 10.13L15.89 10.06L15.90 9.99L15.93 9.91L15.97 9.84L16.02 9.77L16.09 9.70L16.17 9.65L16.26 9.60L16.36 9.57L16.46 9.56L16.58 9.56L16.69 9.58L16.81 9.61L16.92 9.67L17.03 9.74L17.13 9.83L17.22 9.94L17.29 10.07L17.34 10.20L17.38 10.35L17.39 10.51L17.38 10.67L17.35 10.83L17.29 10.99L17.21 11.14L17.10 11.28L16.97 11.41L16.82 11.52L16.65 11.62L16.47 11.68L16.28 11.73L16.07 11.74L15.86 11.72L15.66 11.68L15.45 11.60L15.26 11.49L15.08 11.36L14.92 11.19L14.78 11.01L14.66 10.80L14.58 10.57L14.53 10.32L14.51 10.07L14.53 9.82L14.58 9.56L14.68 9.31L14.80 9.08L14.97 8.86L15.16 8.66L15.39 8.49L15.64 8.35L15.92 8.24L16.20 8.18L16.50 8.15L16.81 8.17L17.11 8.24L17.41 8.34L17.69 8.49L17.95 8.68L18.19 8.91L18.39 9.17L18.56 9.46L18.68 9.78L18.76 10.11L18.80 10.46L18.78 10.81L18.72 11.17L18.60 11.51L18.43 11.84L18.22 12.14L17.97 12.42L17.67 12.66L17.34 12.85L16.98 13.00L16.60 13.10L16.20 13.15L15.80 13.14L15.40 13.07L15.01 12.95L14.63 12.77L14.28 12.54L13.97 12.25L13.69 11.93L13.46 11.56L13.28 11.16L13.16 10.73L13.10 10.30"/><path stroke-width="1.3" d="M8.6 17.4 Q9.733 18.45 10.87 17.4 Q12 16.35 13.13 17.4 Q14.27 18.45 15.4 17.4"/></g></svg>
